<mxfile host="app.diagrams.net" modified="2020-12-21T09:40:10.259Z" agent="5.0 (Windows NT 10.0; Win64; x64) AppleWebKit/537.36 (KHTML, like Gecko) Chrome/87.0.4280.88 Safari/537.36" etag="V0vMSOrHtS5WVHJdMuK0" version="14.0.4" type="github">
  <diagram id="0TkBvI34lwG9WLAItLZz" name="Page-1">
    <mxGraphModel dx="2858" dy="2258" grid="1" gridSize="10" guides="1" tooltips="1" connect="1" arrows="1" fold="1" page="1" pageScale="1" pageWidth="827" pageHeight="1169" math="0" shadow="0">
      <root>
        <mxCell id="0" />
        <mxCell id="1" parent="0" />
        <mxCell id="e1oBxcdbTk6MdkIaAmMm-27" value="" style="rounded=0;whiteSpace=wrap;html=1;fontSize=20;" parent="1" vertex="1">
          <mxGeometry x="-249.75" y="30" width="1327.5" height="590" as="geometry" />
        </mxCell>
        <mxCell id="e1oBxcdbTk6MdkIaAmMm-26" value="" style="rounded=0;whiteSpace=wrap;html=1;fontSize=20;" parent="1" vertex="1">
          <mxGeometry x="240" y="170" width="370" height="360" as="geometry" />
        </mxCell>
        <mxCell id="e1oBxcdbTk6MdkIaAmMm-1" value="Module aktivieren (Funktion aktivieren)&amp;nbsp;" style="rounded=0;whiteSpace=wrap;html=1;fontSize=20;" parent="1" vertex="1">
          <mxGeometry x="306" y="-200" width="216" height="80" as="geometry" />
        </mxCell>
        <mxCell id="e1oBxcdbTk6MdkIaAmMm-2" value="Settings Theme (CSS ändern)&lt;br&gt;(flexibel)" style="rounded=0;whiteSpace=wrap;html=1;fontSize=20;" parent="1" vertex="1">
          <mxGeometry x="255" y="420" width="318" height="90" as="geometry" />
        </mxCell>
        <mxCell id="e1oBxcdbTk6MdkIaAmMm-15" style="edgeStyle=orthogonalEdgeStyle;rounded=0;orthogonalLoop=1;jettySize=auto;html=1;entryX=0.5;entryY=0;entryDx=0;entryDy=0;fontSize=20;" parent="1" source="e1oBxcdbTk6MdkIaAmMm-3" target="e1oBxcdbTk6MdkIaAmMm-2" edge="1">
          <mxGeometry relative="1" as="geometry" />
        </mxCell>
        <mxCell id="e1oBxcdbTk6MdkIaAmMm-3" value="Themen (HTML + CSS)&lt;br&gt;(fest)" style="rounded=0;whiteSpace=wrap;html=1;fontSize=20;" parent="1" vertex="1">
          <mxGeometry x="275.5" y="230" width="277" height="70" as="geometry" />
        </mxCell>
        <mxCell id="e1oBxcdbTk6MdkIaAmMm-6" value="Widgets (HTML)&lt;br&gt;(flexibel)&lt;br&gt;(ID aktivieren/deakt.)" style="rounded=0;whiteSpace=wrap;html=1;fontSize=20;" parent="1" vertex="1">
          <mxGeometry x="780" y="230" width="240" height="70" as="geometry" />
        </mxCell>
        <mxCell id="e1oBxcdbTk6MdkIaAmMm-7" value="? Ergängzung" style="endArrow=open;html=1;startArrow=diamondThin;startFill=0;fontSize=20;exitX=1;exitY=0.5;exitDx=0;exitDy=0;entryX=0;entryY=0.5;entryDx=0;entryDy=0;fillColor=#d5e8d4;strokeColor=#82b366;" parent="1" source="e1oBxcdbTk6MdkIaAmMm-3" target="e1oBxcdbTk6MdkIaAmMm-6" edge="1">
          <mxGeometry x="0.0747" y="25" relative="1" as="geometry">
            <mxPoint x="530" y="270" as="sourcePoint" />
            <mxPoint x="690" y="270" as="targetPoint" />
            <mxPoint as="offset" />
          </mxGeometry>
        </mxCell>
        <mxCell id="e1oBxcdbTk6MdkIaAmMm-9" value="1" style="edgeLabel;resizable=0;html=1;align=right;verticalAlign=top;" parent="e1oBxcdbTk6MdkIaAmMm-7" connectable="0" vertex="1">
          <mxGeometry x="1" relative="1" as="geometry" />
        </mxCell>
        <mxCell id="e1oBxcdbTk6MdkIaAmMm-11" value="" style="endArrow=block;dashed=1;endFill=0;endSize=12;html=1;fontSize=20;" parent="1" source="e1oBxcdbTk6MdkIaAmMm-1" edge="1">
          <mxGeometry width="160" relative="1" as="geometry">
            <mxPoint x="100" y="180" as="sourcePoint" />
            <mxPoint x="414" as="targetPoint" />
          </mxGeometry>
        </mxCell>
        <mxCell id="e1oBxcdbTk6MdkIaAmMm-12" value="Wrokflows &amp;amp; Content(WF Form?) &amp;amp; Datasource" style="rounded=0;whiteSpace=wrap;html=1;fontSize=20;" parent="1" vertex="1">
          <mxGeometry x="168.5" y="720" width="491" height="60" as="geometry" />
        </mxCell>
        <mxCell id="e1oBxcdbTk6MdkIaAmMm-13" value="" style="endArrow=block;dashed=1;endFill=0;endSize=12;html=1;fontSize=20;" parent="1" target="e1oBxcdbTk6MdkIaAmMm-12" edge="1">
          <mxGeometry width="160" relative="1" as="geometry">
            <mxPoint x="413.5" y="640" as="sourcePoint" />
            <mxPoint x="414" y="720" as="targetPoint" />
          </mxGeometry>
        </mxCell>
        <mxCell id="e1oBxcdbTk6MdkIaAmMm-14" value="Navigation&lt;br&gt;(HTML, CSS, JS)&lt;br&gt;(flexibel)&lt;br&gt;(addieren, löschen, versetzen)" style="rounded=0;whiteSpace=wrap;html=1;fontSize=20;" parent="1" vertex="1">
          <mxGeometry x="-185" y="196.25" width="280" height="137.5" as="geometry" />
        </mxCell>
        <mxCell id="e1oBxcdbTk6MdkIaAmMm-17" style="edgeStyle=orthogonalEdgeStyle;rounded=0;orthogonalLoop=1;jettySize=auto;html=1;fontSize=20;entryX=0.5;entryY=0;entryDx=0;entryDy=0;" parent="1" source="e1oBxcdbTk6MdkIaAmMm-16" target="e1oBxcdbTk6MdkIaAmMm-14" edge="1">
          <mxGeometry relative="1" as="geometry">
            <mxPoint x="30" y="150" as="targetPoint" />
          </mxGeometry>
        </mxCell>
        <mxCell id="e1oBxcdbTk6MdkIaAmMm-16" value="Content (Inhalt)&lt;br&gt;(HTML, CSS, JS)&lt;br&gt;(Pages?)" style="rounded=0;whiteSpace=wrap;html=1;fontSize=20;" parent="1" vertex="1">
          <mxGeometry x="-147.5" y="60" width="205" height="80" as="geometry" />
        </mxCell>
        <mxCell id="e1oBxcdbTk6MdkIaAmMm-18" value="? Ergängzung" style="endArrow=classic;html=1;endSize=12;startArrow=diamondThin;startSize=14;startFill=0;edgeStyle=orthogonalEdgeStyle;fontSize=20;exitX=1;exitY=0.5;exitDx=0;exitDy=0;entryX=0;entryY=0.5;entryDx=0;entryDy=0;endFill=1;" parent="1" source="e1oBxcdbTk6MdkIaAmMm-14" target="e1oBxcdbTk6MdkIaAmMm-3" edge="1">
          <mxGeometry x="-0.2453" y="15" relative="1" as="geometry">
            <mxPoint x="100" y="190" as="sourcePoint" />
            <mxPoint x="317.5" y="190" as="targetPoint" />
            <mxPoint as="offset" />
          </mxGeometry>
        </mxCell>
        <mxCell id="e1oBxcdbTk6MdkIaAmMm-20" value="1" style="edgeLabel;resizable=0;html=1;align=right;verticalAlign=top;" parent="e1oBxcdbTk6MdkIaAmMm-18" connectable="0" vertex="1">
          <mxGeometry x="1" relative="1" as="geometry" />
        </mxCell>
        <mxCell id="e1oBxcdbTk6MdkIaAmMm-22" value="Settings" style="rounded=0;whiteSpace=wrap;html=1;fontSize=20;" parent="1" vertex="1">
          <mxGeometry x="570" y="-200" width="216" height="80" as="geometry" />
        </mxCell>
        <mxCell id="e1oBxcdbTk6MdkIaAmMm-23" value="" style="endArrow=block;dashed=1;endFill=0;endSize=12;html=1;fontSize=20;" parent="1" source="e1oBxcdbTk6MdkIaAmMm-22" edge="1">
          <mxGeometry width="160" relative="1" as="geometry">
            <mxPoint x="364" y="180" as="sourcePoint" />
            <mxPoint x="678" as="targetPoint" />
          </mxGeometry>
        </mxCell>
        <mxCell id="e1oBxcdbTk6MdkIaAmMm-24" value="Inhaltstypen" style="rounded=0;whiteSpace=wrap;html=1;fontSize=20;" parent="1" vertex="1">
          <mxGeometry x="39" y="-200" width="216" height="80" as="geometry" />
        </mxCell>
        <mxCell id="e1oBxcdbTk6MdkIaAmMm-25" value="" style="endArrow=block;dashed=1;endFill=0;endSize=12;html=1;fontSize=20;" parent="1" source="e1oBxcdbTk6MdkIaAmMm-24" edge="1">
          <mxGeometry width="160" relative="1" as="geometry">
            <mxPoint x="-167" y="180" as="sourcePoint" />
            <mxPoint x="147" as="targetPoint" />
          </mxGeometry>
        </mxCell>
        <mxCell id="e1oBxcdbTk6MdkIaAmMm-31" style="edgeStyle=orthogonalEdgeStyle;rounded=0;orthogonalLoop=1;jettySize=auto;html=1;entryX=1;entryY=0.5;entryDx=0;entryDy=0;fontSize=20;" parent="1" source="e1oBxcdbTk6MdkIaAmMm-29" target="e1oBxcdbTk6MdkIaAmMm-2" edge="1">
          <mxGeometry relative="1" as="geometry" />
        </mxCell>
        <mxCell id="e1oBxcdbTk6MdkIaAmMm-32" style="edgeStyle=orthogonalEdgeStyle;rounded=0;orthogonalLoop=1;jettySize=auto;html=1;entryX=0.063;entryY=1.057;entryDx=0;entryDy=0;entryPerimeter=0;fontSize=20;" parent="1" source="e1oBxcdbTk6MdkIaAmMm-29" target="e1oBxcdbTk6MdkIaAmMm-6" edge="1">
          <mxGeometry relative="1" as="geometry" />
        </mxCell>
        <mxCell id="e1oBxcdbTk6MdkIaAmMm-29" value="Media" style="rounded=0;whiteSpace=wrap;html=1;fontSize=20;" parent="1" vertex="1">
          <mxGeometry x="680" y="435" width="240" height="60" as="geometry" />
        </mxCell>
        <mxCell id="yttcP3a3L8Fo2rqtafGD-1" value="Text" style="text;html=1;strokeColor=none;fillColor=none;align=center;verticalAlign=middle;whiteSpace=wrap;rounded=0;" vertex="1" parent="1">
          <mxGeometry x="320" y="300" width="40" height="20" as="geometry" />
        </mxCell>
        <mxCell id="yttcP3a3L8Fo2rqtafGD-2" value="&lt;font style=&quot;font-size: 32px&quot;&gt;Startseite&lt;/font&gt;" style="text;html=1;strokeColor=none;fillColor=none;align=center;verticalAlign=middle;whiteSpace=wrap;rounded=0;" vertex="1" parent="1">
          <mxGeometry x="374" y="60" width="40" height="20" as="geometry" />
        </mxCell>
      </root>
    </mxGraphModel>
  </diagram>
</mxfile>
